<svg xmlns="http://www.w3.org/2000/svg" xmlns:xlink="http://www.w3.org/1999/xlink" width="524" height="481" viewBox="0 0 524 481">
  <defs>
    <path id="header-narrow-a" d="M265.396029,557.720069 C268.732155,561.509523 273.368806,565.499355 279.305981,569.689567 C281.650436,571.344185 284.592721,571.911926 287.384485,571.24839 L287.384486,571.248393 L414.535302,541.027628 C418.57072,540.068504 421.595134,536.717755 422.137192,532.605493 L422.137192,532.605493 L459.574932,248.58796 C459.965005,245.628707 459.012764,242.64991 456.978454,240.465667 L456.978455,240.465666 C456.023017,239.43981 454.871686,238.259664 453.524463,236.925228 C450.634662,234.062855 447.677123,231.79817 444.651845,230.131172 L444.651845,230.131172 C442.489641,228.939748 440.078332,228.632589 437.83459,229.089591 C436.928893,229.100152 436.009515,229.234909 435.098216,229.505655 L435.098216,229.505655 L322.705877,262.897232 L322.705877,262.897232 C319.129329,263.959818 316.441774,266.925125 315.734924,270.588614 L315.734924,270.588614 L262.15374,548.291384 C261.884173,549.688506 261.915865,551.127069 262.246698,552.510964 C262.749296,554.613364 263.881723,556.40049 265.396029,557.720069 Z"/>
  </defs>
  <g fill="none" fill-rule="evenodd" transform="translate(-23)">
    <g transform="rotate(49 360.817 400.204)">
      <use fill="#BADFC3" xlink:href="#header-narrow-a"/>
      <path stroke="#323A46" stroke-width="3" d="M266.381483,556.589193 L266.521892,556.728891 C269.772372,560.421061 274.322768,564.336672 280.170905,568.464043 C282.16369,569.870468 284.664633,570.353049 287.037633,569.789046 L414.188449,539.568281 C417.618555,538.753026 420.189307,535.904889 420.650056,532.409467 L458.087795,248.391934 C458.419358,245.876569 457.609953,243.344591 455.880791,241.487984 C454.940248,240.478121 453.802665,239.312067 452.468872,237.990934 C449.673915,235.222504 446.82631,233.041999 443.927935,231.444927 C442.136332,230.457713 440.09676,230.159633 438.133961,230.559413 L437.994448,230.587829 L437.85208,230.589489 C437.071269,230.598594 436.29047,230.716239 435.525409,230.943537 L323.13307,264.335115 C320.093004,265.238313 317.808582,267.758824 317.20776,270.872789 L263.626576,548.57556 C263.397444,549.763113 263.424382,550.985892 263.70559,552.162203 C264.122603,553.906593 265.059183,555.436929 266.381483,556.589193 Z"/>
    </g>
    <path fill="#CDF4D7" d="M329.583169,263.233932 L443.190479,229.533568 L443.190479,229.533568 C446.36736,228.591181 449.706686,230.402596 450.649073,233.579477 C450.896287,234.412861 450.959463,235.29001 450.834229,236.150219 L409.668723,518.908571 L409.668723,518.908571 C409.315322,521.336019 407.519852,523.303865 405.134875,523.877696 L279.076946,554.207529 L279.076946,554.207529 C275.855179,554.982694 272.615025,552.999331 271.839861,549.777564 C271.639933,548.946618 271.619834,548.082547 271.780909,547.243204 L325.397034,267.855383 L325.397034,267.855383 C325.819521,265.653851 327.434028,263.871451 329.583169,263.233932 Z" transform="rotate(49 361.285 391.83)"/>
    <ellipse cx="261" cy="456" stroke="#67C18E" stroke-width="3" rx="15" ry="11"/>
    <rect width="59" height="19" x="241.282" y="59" fill="#FFF" opacity=".2" rx="9.5"/>
    <rect width="80" height="19" x="101.282" y="215" fill="#FFF" opacity=".2" rx="9.5"/>
    <rect width="61" height="19" x="29.282" y="318" fill="#FFF" opacity=".3" rx="9.5"/>
    <rect width="61" height="19" x="159.282" y="348" fill="#FFF" opacity=".2" rx="9.5"/>
    <path fill="#FFF" d="M138.009808,172.727922 L138.009808,164.727922 L136.009808,164.727922 L136.009808,172.727922 L128.009808,172.727922 L128.009808,174.727922 L136.009808,174.727922 L136.009808,182.727922 L138.009808,182.727922 L138.009808,174.727922 L146.009808,174.727922 L146.009808,172.727922 L138.009808,172.727922 Z" opacity=".5" transform="rotate(-45 137.01 173.728)"/>
    <path fill="#FFF" d="M364.009808,30.7279221 L364.009808,22.7279221 L362.009808,22.7279221 L362.009808,30.7279221 L354.009808,30.7279221 L354.009808,32.7279221 L362.009808,32.7279221 L362.009808,40.7279221 L364.009808,40.7279221 L364.009808,32.7279221 L372.009808,32.7279221 L372.009808,30.7279221 L364.009808,30.7279221 Z" opacity=".5" transform="rotate(-45 363.01 31.728)"/>
    <path fill="#FFF" d="M540.009808,397.727922 L540.009808,389.727922 L538.009808,389.727922 L538.009808,397.727922 L530.009808,397.727922 L530.009808,399.727922 L538.009808,399.727922 L538.009808,407.727922 L540.009808,407.727922 L540.009808,399.727922 L548.009808,399.727922 L548.009808,397.727922 L540.009808,397.727922 Z" opacity=".1" transform="rotate(-45 539.01 398.728)"/>
    <path fill="#FFF" d="M32.0098083,391.727922 L32.0098083,383.727922 L30.0098083,383.727922 L30.0098083,391.727922 L22.0098083,391.727922 L22.0098083,393.727922 L30.0098083,393.727922 L30.0098083,401.727922 L32.0098083,401.727922 L32.0098083,393.727922 L40.0098083,393.727922 L40.0098083,391.727922 L32.0098083,391.727922 Z" opacity=".3" transform="rotate(-45 31.01 392.728)"/>
    <path fill="#FFF" fill-rule="nonzero" d="M275.781886 154C270.535181 154 266.281886 149.746705 266.281886 144.5 266.281886 139.253295 270.535181 135 275.781886 135 281.028591 135 285.281886 139.253295 285.281886 144.5 285.281886 149.746705 281.028591 154 275.781886 154zM275.781886 152C279.924022 152 283.281886 148.642136 283.281886 144.5 283.281886 140.357864 279.924022 137 275.781886 137 271.639751 137 268.281886 140.357864 268.281886 144.5 268.281886 148.642136 271.639751 152 275.781886 152zM74.7818862 32C69.5351811 32 65.2818862 27.7467051 65.2818862 22.5 65.2818862 17.2532949 69.5351811 13 74.7818862 13 80.0285913 13 84.2818862 17.2532949 84.2818862 22.5 84.2818862 27.7467051 80.0285913 32 74.7818862 32zM74.7818862 30C78.9240218 30 82.2818862 26.6421356 82.2818862 22.5 82.2818862 18.3578644 78.9240218 15 74.7818862 15 70.6397506 15 67.2818862 18.3578644 67.2818862 22.5 67.2818862 26.6421356 70.6397506 30 74.7818862 30z" opacity=".2"/>
    <path fill="#FFF" fill-rule="nonzero" d="M129.781886,287 C124.535181,287 120.281886,282.746705 120.281886,277.5 C120.281886,272.253295 124.535181,268 129.781886,268 C135.028591,268 139.281886,272.253295 139.281886,277.5 C139.281886,282.746705 135.028591,287 129.781886,287 Z M129.781886,285 C133.924022,285 137.281886,281.642136 137.281886,277.5 C137.281886,273.357864 133.924022,270 129.781886,270 C125.639751,270 122.281886,273.357864 122.281886,277.5 C122.281886,281.642136 125.639751,285 129.781886,285 Z" opacity=".6"/>
    <path fill="#FFF" fill-rule="nonzero" d="M142.781886 389C137.535181 389 133.281886 384.746705 133.281886 379.5 133.281886 374.253295 137.535181 370 142.781886 370 148.028591 370 152.281886 374.253295 152.281886 379.5 152.281886 384.746705 148.028591 389 142.781886 389zM142.781886 387C146.924022 387 150.281886 383.642136 150.281886 379.5 150.281886 375.357864 146.924022 372 142.781886 372 138.639751 372 135.281886 375.357864 135.281886 379.5 135.281886 383.642136 138.639751 387 142.781886 387zM428.781886 425C423.535181 425 419.281886 420.746705 419.281886 415.5 419.281886 410.253295 423.535181 406 428.781886 406 434.028591 406 438.281886 410.253295 438.281886 415.5 438.281886 420.746705 434.028591 425 428.781886 425zM428.781886 423C432.924022 423 436.281886 419.642136 436.281886 415.5 436.281886 411.357864 432.924022 408 428.781886 408 424.639751 408 421.281886 411.357864 421.281886 415.5 421.281886 419.642136 424.639751 423 428.781886 423z" opacity=".2"/>
    <path fill="#FFF" fill-rule="nonzero" d="M198.781886,19 C193.535181,19 189.281886,14.7467051 189.281886,9.5 C189.281886,4.25329488 193.535181,0 198.781886,0 C204.028591,0 208.281886,4.25329488 208.281886,9.5 C208.281886,14.7467051 204.028591,19 198.781886,19 Z M198.781886,17 C202.924022,17 206.281886,13.6421356 206.281886,9.5 C206.281886,5.35786438 202.924022,2 198.781886,2 C194.639751,2 191.281886,5.35786438 191.281886,9.5 C191.281886,13.6421356 194.639751,17 198.781886,17 Z" opacity=".4"/>
    <g transform="translate(325 329)">
      <rect width="75.735" height="20" fill="#FFF" rx="10"/>
      <circle cx="92" cy="10" r="8.5" stroke="#67C18E" stroke-width="3" opacity=".6"/>
    </g>
    <path stroke="#323A46" stroke-width="3" d="M450.510742,291 C445.829753,298.023438 445.829753,303.091797 450.510742,306.205078 C457.532227,310.875 489.435547,331.113281 498.236328,336.947266 C504.103516,340.836589 512.983398,340.836589 524.875977,336.947266 L450.510742,291 Z" transform="rotate(.5 485.938 315.432)"/>
    <g transform="translate(192 272.5)">
      <rect width="169.646" height="39.873" y=".111" fill="#FFF" stroke="#FFF" stroke-width="3" rx="19.937" transform="translate(49)"/>
      <circle cx="20" cy="20" r="18.5" stroke="#00B2CC" stroke-width="3" opacity=".6"/>
      <g fill="#CDF4D7" transform="translate(66 15)">
        <rect width="50" height="10" rx="5"/>
        <rect width="20" height="10" x="57" rx="5"/>
        <rect width="24" height="10" x="84" rx="5"/>
      </g>
    </g>
    <g transform="translate(315 226)">
      <rect width="121.176" height="29.507" y=".153" fill="#FFF" stroke="#FFF" stroke-width="3" opacity=".5" rx="14.754"/>
      <circle cx="146" cy="15" r="13.5" stroke="#6F5FE8" stroke-width="3" opacity=".45"/>
      <g fill="#CDF4D7" transform="translate(32 10)">
        <rect width="30" height="10" x="48" rx="5"/>
        <rect width="40" height="10" rx="5"/>
      </g>
    </g>
  </g>
</svg>
